Coordinates
version=1
nRows=10
nColumns=27
inDegrees=yes

Units are S.I. units (second, meters, Newtons, ...)
If the header above contains a line with 'inDegrees', this indicates whether rotational values are in degrees (yes) or radians (no).

endheader
time	pelvis_rotation	pelvis_tilt	pelvis_list	pelvis_tx	pelvis_ty	pelvis_tz	hip_flexion_r	hip_adduction_r	hip_rotation_r	knee_angle_r	knee_rotation_r	knee_adduction_r	knee_angle_r_beta	ankle_angle_r	subtalar_angle_r	mtp_angle_r	hip_flexion_l	hip_adduction_l	hip_rotation_l	knee_angle_l	knee_rotation_l	knee_adduction_l	knee_angle_l_beta	ankle_angle_l	subtalar_angle_l	mtp_angle_l
      5.03500000	     10.49930864	    -41.19417059	      8.02233729	     -0.07481044	      0.64207151	     -1.11835564	    109.50556941	    -45.29537898	      2.97439169	     75.85477362	      0.00000000	      9.32344588	      1.32391555	      3.95663834	      0.00000000	      0.00000000	    101.50897709	    -30.72649479	     -7.14646795	     66.55626498	      0.00000000	     -9.66146838	      1.16162596	     -2.88295769	      0.00000000	      0.00000000
      5.04000000	     11.21166531	    -40.96797281	      8.12858714	     -0.07409166	      0.64347099	     -1.11891448	    108.84154665	    -46.25766588	      2.25861355	     75.61205972	      0.00000000	      9.63844515	      1.31967940	      3.98558047	      0.00000000	      0.00000000	    101.24531900	    -30.01945794	     -7.04239153	     66.30217287	      0.00000000	     -9.81580689	      1.15719122	     -2.88740508	      0.00000000	      0.00000000
      5.04500000	     10.43260940	    -41.01227725	      8.20157254	     -0.07447479	      0.64480374	     -1.11903457	    108.95569523	    -45.28199714	      2.76969611	     75.27899692	      0.00000000	      9.33633930	      1.31386635	      3.77892490	      0.00000000	      0.00000000	    100.66847657	    -30.73223046	     -7.76621081	     66.04764221	      0.00000000	     -9.65940427	      1.15274882	     -3.00126307	      0.00000000	      0.00000000
      5.05000000	     11.09673685	    -40.82300477	      8.30421999	     -0.07374360	      0.64613618	     -1.11964348	    108.36039137	    -46.20309931	      2.06879465	     75.04940648	      0.00000000	      9.64621727	      1.30985924	      3.76712905	      0.00000000	      0.00000000	    100.45369022	    -30.06932380	     -7.66245275	     65.83099530	      0.00000000	     -9.81428814	      1.14896762	     -2.99065337	      0.00000000	      0.00000000
      5.05500000	     11.02298873	    -40.68989049	      8.36628844	     -0.07352058	      0.64746494	     -1.12002697	    108.02629945	    -46.17386351	      1.95127007	     74.75968983	      0.00000000	      9.64858188	      1.30480274	      3.67877184	      0.00000000	      0.00000000	     99.99403187	    -30.08436312	     -7.94649512	     65.59388744	      0.00000000	     -9.81403719	      1.14482930	     -2.98446761	      0.00000000	      0.00000000
      5.06000000	     10.97899864	    -40.63567214	      8.41604268	     -0.07332557	      0.64871278	     -1.12039537	    107.76340640	    -46.16075581	      1.81440883	     74.48735763	      0.00000000	      9.65244936	      1.30004964	      3.58863339	      0.00000000	      0.00000000	     99.67079127	    -30.08401926	     -8.18283827	     65.37996109	      0.00000000	     -9.81357660	      1.14109559	     -3.04774326	      0.00000000	      0.00000000
      5.06500000	     10.94058158	    -40.53636080	      8.50731874	     -0.07309750	      0.64997732	     -1.12083900	    107.49986155	    -46.16095801	      1.72932541	     74.20960768	      0.00000000	      9.65481264	      1.29520199	      3.49622227	      0.00000000	      0.00000000	     99.25982469	    -30.06792828	     -8.46650153	     65.15726140	      0.00000000	     -9.81277775	      1.13720874	     -3.07038151	      0.00000000	      0.00000000
      5.07000000	     10.24488252	    -40.56023862	      8.53245070	     -0.07336455	      0.65119535	     -1.12106004	    107.52688793	    -45.31001277	      2.15313888	     73.88124213	      0.00000000	      9.36717702	      1.28947093	      3.31495460	      0.00000000	      0.00000000	     98.74239606	    -30.65100743	     -9.04898509	     64.93936435	      0.00000000	     -9.65345871	      1.13340572	     -3.13780798	      0.00000000	      0.00000000
      5.07500000	     10.91230813	    -40.33958579	      8.58260588	     -0.07254123	      0.65244720	     -1.12171978	    106.82839540	    -46.25588870	      1.35740283	     73.65507145	      0.00000000	      9.66339205	      1.28552351	      3.31334176	      0.00000000	      0.00000000	     98.55741967	    -29.95979184	     -8.83736869	     64.74569332	      0.00000000	     -9.81097265	      1.13002552	     -3.10747312	      0.00000000	      0.00000000
      5.08000000	     10.11539694	    -40.34628379	      8.69348650	     -0.07282204	      0.65362472	     -1.12198144	    106.99048781	    -45.27180566	      2.00099462	     73.33513972	      0.00000000	      9.37929637	      1.27993965	      3.11603123	      0.00000000	      0.00000000	     97.90759794	    -30.64482237	     -9.61408453	     64.52847566	      0.00000000	     -9.65128595	      1.12623436	     -3.16189920	      0.00000000	      0.00000000
